<svg style="display: none;" aria-hidden="true" xmlns="http://www.w3.org/2000/svg" xmlns:xlink="http://www.w3.org/1999/xlink"><symbol viewBox="0 0 40 34" fill="none" id="svg-01"><path d="M6.79925 5.54531C6.86211 5.80027 7.55358 6.88383 8.37077 7.9674 10.2566 10.262 11.3252 9.56088 9.56512 7.20253 8.30791 5.48157 6.79925 4.52548 6.79925 5.54531zM30.7492 6.75635C29.3662 8.54105 29.0519 9.56087 29.932 9.56087 30.4349 9.56087 33.2007 6.11896 33.2007 5.41783 33.2007 4.58922 31.8807 5.29035 30.7492 6.75635zM11.4509 11.4731C9.81657 12.1104 8.93651 13.3852 10.068 13.3852 11.1366 13.3852 13.5253 11.728 13.0853 11.2818 12.8967 11.0906 12.1424 11.2181 11.4509 11.4731zM26.9147 11.5368C26.9147 12.1742 28.9891 13.3852 30.1206 13.3852 30.6863 13.3852 30.6863 13.194 30.1206 12.4929 29.2405 11.4093 26.9147 10.7082 26.9147 11.5368zM7.23928 21.7351C4.09624 22.4999 2.27328 23.5197 2.71331 24.2846 2.96475 24.6033 3.65622 24.5396 4.47341 24.0934 5.22773 23.6472 6.98783 23.201 8.37077 23.0098 9.75371 22.7549 10.8223 22.3724 10.7595 21.99 10.6338 21.1614 10.0051 21.0977 7.23928 21.7351zM29.1777 21.4801C28.4862 22.245 29.5548 22.9461 31.3778 22.9461 32.4464 22.9461 34.0808 23.3923 35.0866 23.9022 36.2809 24.5396 37.0352 24.6033 37.2867 24.2209 37.9782 23.1373 30.1834 20.524 29.1777 21.4801zM7.49072 25.8781C6.42209 26.7704 5.54204 27.9177 5.54204 28.4277 5.54204 29.7024 5.85634 29.575 7.93074 27.4078 8.99938 26.3243 10.3195 25.4957 10.8223 25.4957 11.3881 25.4957 11.8281 25.177 11.8281 24.8583 11.8281 23.6472 9.4394 24.2209 7.49072 25.8781zM28.1719 24.8583C28.1719 25.177 28.6119 25.4957 29.1777 25.4957 29.6805 25.4957 31.0006 26.3243 32.0693 27.4078 34.1437 29.575 34.458 29.7024 34.458 28.4277 34.458 27.2166 30.8749 24.2209 29.3662 24.2209 28.7376 24.2209 28.1719 24.4758 28.1719 24.8583z" fill="#9FDB3D"/><path fill-rule="evenodd" clip-rule="evenodd" d="M11.3252 14.7875C9.62798 16.5084 10.9481 19.1217 13.5253 19.1217 15.3483 19.1217 16.5427 17.0184 15.5997 15.2974 14.8454 13.8951 12.5196 13.5764 11.3252 14.7875zM12.1424 17.2096C12.8339 18.3569 14.3425 17.9107 14.3425 16.5722 14.3425 15.871 13.9654 15.2974 13.4625 15.2974 12.331 15.2974 11.6395 16.3172 12.1424 17.2096zM24.4002 15.2337C23.3945 17.2096 24.6517 19.2492 26.7261 18.9943 28.8634 18.7393 29.9949 16.9546 29.0519 15.4249 28.0462 13.7677 25.2803 13.6402 24.4002 15.2337zM26.789 17.7195C27.3547 17.592 27.8576 17.0821 27.8576 16.5722 27.8576 16.0623 27.3547 15.5524 26.789 15.4249 25.9718 15.2974 25.6575 15.6161 25.6575 16.5722 25.6575 17.5283 25.9718 17.847 26.789 17.7195z" fill="#9FDB3D"/><path fill-rule="evenodd" clip-rule="evenodd" d="M3.90766 0.956087C2.21042 2.10339 1.58181 6.05522 2.399 10.007C2.96475 12.5566 2.90189 13.3852 1.7704 16.126C-0.304007 20.9702 -0.55545 25.3044 1.01607 28.4914C3.34191 33.0169 8.05647 35.0565 12.771 33.4631C14.9083 32.6982 16.1655 32.6344 17.7999 33.0806C19.1828 33.4631 20.8172 33.4631 22.2001 33.0806C23.8345 32.6344 25.0917 32.6982 27.229 33.4631C31.9435 35.0565 36.6581 33.0169 38.9839 28.4914C40.5555 25.3044 40.304 20.9702 38.2296 16.126C37.0981 13.3852 37.0352 12.5566 37.601 10.007C38.481 5.92774 37.7896 2.10339 35.9666 0.892348C34.7094 0 34.3322 0 32.7607 0.892348C31.8178 1.466 30.2463 2.54957 29.3034 3.2507C27.8576 4.46174 27.4176 4.52548 25.5946 3.88809C23.0173 2.99574 16.9827 2.99574 14.4054 3.88809C12.771 4.46174 12.1424 4.398 10.8223 3.44191C7.86788 1.33852 5.85634 0 5.54204 0C5.35346 0 4.59913 0.446174 3.90766 0.956087ZM12.4567 7.33C12.4567 6.82009 11.1366 5.41783 9.56512 4.14304C6.54781 1.84843 4.72485 1.33852 3.90766 2.67704C3.02761 4.07931 3.46763 10.7719 4.53627 12.4291C5.79348 14.3413 5.85634 15.3611 4.66199 14.915C3.65622 14.5325 1.89612 18.5481 1.39323 22.6274C0.450321 29.5112 7.17641 34.6104 13.3368 31.7421C15.2854 30.9135 15.8512 29.3837 15.7883 25.3044C15.7255 22.245 16.4169 21.2889 17.0455 23.5835C17.2341 24.4121 17.6742 24.7308 18.3656 24.4758C19.6228 23.9659 19.6857 21.9263 18.4285 21.4164C16.6684 20.779 17.4856 20.0778 20 20.0778C22.5144 20.0778 23.3316 20.779 21.5715 21.4164C20.3143 21.9263 20.3772 23.9659 21.6344 24.4758C22.3258 24.7308 22.7659 24.4121 22.9545 23.5835C23.5831 21.2889 24.2745 22.245 24.2117 25.3682C24.1488 29.3837 24.7146 30.9135 26.6632 31.7421C32.8236 34.6104 39.5497 29.5112 38.6068 22.6274C38.1039 18.5481 36.3438 14.5325 35.338 14.915C34.2065 15.3611 34.2065 14.66 35.4637 12.1742C36.4695 10.1345 36.8467 3.95183 36.0923 2.61331C35.8409 2.23087 35.1494 1.91217 34.5208 1.91217C33.0122 1.91217 27.5433 6.1827 27.5433 7.33C27.5433 7.83991 27.229 8.28609 26.8518 8.28609C26.4746 8.28609 26.2861 7.71244 26.4746 7.07505C26.8518 5.48157 24.2745 4.46174 20 4.46174C15.7255 4.46174 13.1482 5.48157 13.5253 7.07505C13.7139 7.71244 13.5253 8.28609 13.1482 8.28609C12.771 8.28609 12.4567 7.83991 12.4567 7.33ZM23.2688 31.4871C23.8345 30.9135 22.6401 26.643 21.7601 26.0693C21.3201 25.7506 20.5029 25.4957 20 25.4957C19.4971 25.4957 18.6799 25.7506 18.2399 26.0693C17.3598 26.643 16.1655 30.9135 16.7312 31.4871C17.1713 31.9971 22.8287 31.9971 23.2688 31.4871Z" fill="#9FDB3D"/></symbol><symbol viewBox="0 0 35 36" fill="none" id="svg-02"><path d="M12.0859 0.95224C-0.392644 5.43972 -4.09203 21.4583 5.18404 30.9445C8.773 34.6367 12.0859 36 17.6074 36C21.3067 36 22.7975 35.716 24.7853 34.7503C28.7055 32.7622 31.0798 30.4901 33.0675 26.5706C34.7791 23.3328 34.9448 22.5376 35 18.1637C35 13.6762 34.8344 13.0514 33.0123 9.64318C28.816 1.80429 19.9816 -1.88794 12.0859 0.95224ZM18.4356 2.65635C17.8282 5.38291 16.6687 6.63259 13.0798 8.62071C8.773 10.9497 5.29447 14.4715 4.35582 17.3116C2.92024 21.7991 4.96319 26.6842 9.82208 30.3197C11.8098 31.7965 12.6932 32.0806 15.3436 32.0806C20.589 32.0806 22.3006 30.5469 28.4847 20.1518C29.4785 18.5045 33.2883 16.5164 34.0061 17.2548C34.227 17.4253 34.0613 19.1862 33.7301 21.1175C32.0736 30.3765 23.6258 36.4544 14.7914 34.7503C2.86503 32.4782 -2.76688 18.6181 4.07975 8.4503C6.8957 4.36045 12.4724 1.17945 17 1.12265C18.7117 1.12265 18.8221 1.23626 18.4356 2.65635ZM20.9202 2.54274C20.9202 3.79242 18.9877 7.48464 17.8282 8.56391C17.2209 9.07514 15.2331 10.3248 13.3006 11.3473C9.32515 13.5058 6.73006 16.4028 6.23312 19.1862C5.73619 21.7991 7.83435 25.7754 10.8712 28.0475C15.8405 31.6829 20.4233 29.8084 24.2331 22.5944C25.2822 20.5494 26.4969 18.4477 26.9387 17.9365C27.8773 16.7436 31.5767 14.7555 32.7914 14.7555C34.1718 14.7555 33.7301 15.7212 32.1288 16.1756C29.589 16.8004 27.546 18.7317 25.8896 22.0831C21.6933 30.7173 16.1166 33.2734 10.4294 29.2404C9.26993 28.3883 7.66871 26.741 6.84049 25.5482C2.92024 19.6974 5.4049 13.9602 13.7975 9.64318C17.0552 7.93907 18.9325 5.83734 19.5399 3.22438C19.9816 1.57708 20.9202 1.12265 20.9202 2.54274ZM26.773 4.13324C31.0245 7.14382 34.7239 13.6194 32.2393 13.6194C29.5337 13.6194 25.1166 17.4821 23.7914 21.0039C22.7975 23.6736 19.9264 27.0819 17.9386 28.0475C15.3436 29.2972 12.8589 28.5587 10.1534 25.8322C7.50306 23.0488 6.78527 20.4926 8 17.8229C8.93865 15.778 12.2515 12.8242 14.8466 11.8017C18.2699 10.4384 22.0245 5.89415 22.0245 3.11077C22.0245 1.74749 23.9018 2.14511 26.773 4.13324Z" fill="#9FDB3D"/></symbol><symbol viewBox="0 0 60 60" fill="none" id="svg-03"><path d="M10.4545 2.63633C8.45454 3.54542 5.45454 5.72724 3.81818 7.63633C1.27272 10.5454 0.909088 11.6363 0.909088 16.1818C0.909088 24.0909 4.63636 27.6363 10.3636 25.4545C12.5455 24.6363 12.7273 24.8181 12.7273 27.0909C12.8182 28.4545 13.3636 31 14 32.8181C14.9091 35.5454 14.9091 36.3636 13.9091 37.8181C12.0909 40.2727 12.4545 45.7272 14.5455 48.4545C15.5455 49.7272 16.3636 52.0909 16.3636 53.8182C16.3636 58.7272 17.3636 59.0909 30 59.0909C42.6364 59.0909 43.6364 58.7272 43.6364 53.8182C43.6364 52.0909 44.4545 49.7272 45.4545 48.4545C47.5455 45.7272 47.9091 40.2727 46.0909 37.8181C45.0909 36.3636 45.0909 35.5454 46 32.8181C46.6364 31 47.1818 28.4545 47.2727 27.0909C47.2727 24.8181 47.4545 24.6363 49.6364 25.4545C55.4545 27.7272 59.0909 24.0909 59.0909 16C59.0909 10.9091 58.9091 10.4545 55.1818 6.81815C51.0909 2.63633 45.2727 0.272694 41.5455 1.27269C40.2727 1.54542 38.0909 2.99997 36.7273 4.45451C34.7273 6.63633 33.5455 7.09088 29.8182 7.09088C26.7273 7.09088 25.0909 6.63633 24.2727 5.54542C22.4545 2.99997 18.8182 0.909058 16.3636 0.909058C15.0909 0.909058 12.4545 1.72724 10.4545 2.63633ZM22.4545 6.90906C24.6364 9.27269 26.3636 10.7272 26.3636 10.0909C26.3636 9.54542 27.9091 9.09088 30 9.09088C32.0909 9.09088 33.6364 9.54542 33.6364 10.0909C33.6364 10.7272 35.3636 9.27269 37.5455 6.90906C42 2.18178 43.7273 1.81815 49 4.54542C54.5455 7.3636 57.2727 11.1818 57.2727 16.2727C57.2727 21.4545 55.7273 23.8181 52.2727 23.8181C48.5454 23.8181 47.2727 21.5454 47.2727 14.3636C47.2727 9.54542 46.9091 7.99997 45.8182 7.54542C45.0909 7.27269 44 7.45451 43.3636 8.09088C42.6364 8.81815 42.7273 9.09088 43.9091 9.09088C45.7273 9.09088 46.0909 12.3636 44.3636 13C43.4545 13.3636 43.4545 13.6363 44.3636 14.6363C45.7273 16.0909 45.8182 26.3636 44.5454 31.0909C43.8182 33.7272 43.2727 34.2727 41.8182 33.9091C39.3636 33.2727 39.5455 33.9091 42.7273 37.0909C47.8182 42.1818 44.9091 50 38 50C31.8182 50 28.7273 44.9091 32.7273 41.3636C33.7273 40.4545 34.5455 38.9091 34.5455 38C34.5455 35.7272 30.7273 34.3636 27.7273 35.4545C25 36.5454 24.8182 39.0909 27.2727 41.3636C31.2727 44.9091 28.1818 50 22 50C15.0909 50 12.1818 42.1818 17.2727 37.0909C20.4545 33.9091 20.6364 33.2727 18.1818 33.9091C16.7273 34.2727 16.1818 33.7272 15.4545 31.0909C14.1818 26.3636 14.2727 16.0909 15.7273 14.6363C16.6364 13.6363 16.6364 13.3636 15.7273 13C13.9091 12.3636 14.2727 9.09088 16.0909 9.09088C17.2727 9.09088 17.3636 8.81815 16.6364 8.09088C16 7.45451 14.9091 7.27269 14.1818 7.54542C13.0909 7.99997 12.7273 9.54542 12.7273 14.3636C12.7273 21.5454 11.4545 23.8181 7.72727 23.8181C4.27272 23.8181 2.72727 21.4545 2.72727 16.2727C2.72727 11.2727 5.36363 7.45451 10.8182 4.54542C16 1.81815 18 2.18178 22.4545 6.90906ZM32.7273 38.0909C32.7273 38.5454 32.0909 39.3636 31.3636 40C30.2727 40.9091 29.7273 40.9091 28.6364 40C26.5455 38.2727 27 37.2727 30 37.2727C31.5455 37.2727 32.7273 37.6363 32.7273 38.0909ZM30.0909 52.7272C30.5455 52.7272 30.9091 52.0909 30.9091 51.3636C30.9091 50.5454 31.4545 50.2727 32.3636 50.6363C34.1818 51.2727 33.7273 55.3636 31.6364 56.7272C29.5455 58 26.9091 56.4545 26.5455 53.6363C26.1818 51.2727 28.4545 49.1818 28.9091 51.3636C29.0909 52.0909 29.6364 52.7272 30.0909 52.7272ZM24.6364 54.9091C25.2727 57.2727 25.1818 57.3636 22 57.0909C19.0909 56.8181 18.6364 56.4545 18.3636 54.2727C18.0909 51.8181 18.2727 51.7272 21 52C23.3636 52.2727 24.0909 52.9091 24.6364 54.9091ZM41.6364 54.2727C41.3636 56.4545 40.9091 56.8181 38 57.0909C35.1818 57.3636 34.6364 57.0909 35 56C35.2727 55.1818 35.6364 54 35.8182 53.3636C36 52.7272 37.4545 52.0909 39.0909 52C41.7273 51.8181 41.9091 52 41.6364 54.2727Z" fill="#9FDB3D"/><path d="M17.8182 17.7272C16.8182 18.4545 16.2727 19.2727 16.5455 19.5454 17.1818 20.2727 21.8182 18.0909 21.8182 17.0909 21.8182 15.9091 19.7273 16.2727 17.8182 17.7272zM38.1818 17.0909C38.1818 18.0909 42.8182 20.2727 43.4545 19.5454 44.0909 18.9091 40.8182 16.4545 39.3636 16.3636 38.7273 16.3636 38.1818 16.7272 38.1818 17.0909zM19.6364 21.7272C17.7273 23.8181 18.3636 26.9091 20.8182 27.7272 24.9091 29 27.7273 24.8181 24.9091 21.7272 24.0909 20.8181 22.9091 20 22.2727 20 21.6364 20 20.4545 20.8181 19.6364 21.7272zM23.9091 23.3636C24.2727 23.6363 24.0909 24.4545 23.5455 25.1818 22.7273 26.0909 22.1818 26.0909 21.2727 25.3636 20.5455 24.8181 20.2727 24 20.5455 23.5454 21.0909 22.5454 23.0909 22.4545 23.9091 23.3636zM35.0909 21.7272C33.1818 23.8181 33.8182 26.9091 36.2727 27.7272 40.3636 29 43.1818 24.8181 40.3636 21.7272 39.5454 20.8181 38.3636 20 37.7273 20 37.0909 20 35.9091 20.8181 35.0909 21.7272zM39.3636 23.3636C39.7273 23.6363 39.5454 24.4545 39 25.1818 38.1818 26.0909 37.6364 26.0909 36.7273 25.3636 36 24.8181 35.7273 24 36 23.5454 36.5454 22.5454 38.5454 22.4545 39.3636 23.3636zM24.5455 43.7272C24.5455 44.1818 25 44.3636 25.4545 44.0909 26 43.8181 26.3636 43.3636 26.3636 43.0909 26.3636 42.9091 26 42.7272 25.4545 42.7272 25 42.7272 24.5455 43.1818 24.5455 43.7272zM34.0909 43.6363C34.3636 44.0909 34.8182 44.5454 35.0909 44.5454 35.2727 44.5454 35.4545 44.0909 35.4545 43.6363 35.4545 43.0909 35 42.7272 34.4545 42.7272 34 42.7272 33.8182 43.0909 34.0909 43.6363zM18.1818 45.4545C18.1818 45.9091 18.6364 46.3636 19.0909 46.3636 19.6364 46.3636 20 45.9091 20 45.4545 20 44.9091 19.6364 44.5454 19.0909 44.5454 18.6364 44.5454 18.1818 44.9091 18.1818 45.4545zM40 45.4545C40 45.9091 40.4545 46.3636 40.9091 46.3636 41.4545 46.3636 41.8182 45.9091 41.8182 45.4545 41.8182 44.9091 41.4545 44.5454 40.9091 44.5454 40.4545 44.5454 40 44.9091 40 45.4545z" fill="#9FDB3D"/></symbol><symbol viewBox="0 0 55 55" fill="none" id="svg-04"><path d="M15.3659 2.42286C12.0864 4.35747 10.4045 6.96499 9.64772 10.9183C9.14318 13.4417 8.63863 14.1147 6.45227 14.7876C3.08863 15.7128 0.818176 19.9185 0.818176 24.9653C0.818176 26.984 1.91136 32.9561 3.3409 38.3394C4.68636 43.6386 5.86363 49.0218 5.86363 50.2835C5.86363 51.5452 6.28409 52.9752 6.87272 53.564C8.30227 54.9939 47.1523 54.9939 48.5818 53.564C49.1705 52.9752 49.5909 51.377 49.5909 50.0312C49.5909 48.6013 50.7682 43.218 52.1136 38.1712C53.4591 33.0402 54.6364 27.2364 54.6364 25.1335C54.6364 19.9185 52.3659 15.7128 49.0023 14.7035C46.7318 14.1147 46.2273 13.4417 45.8068 10.7501C44.4614 3.01165 36.725 -1.36226 30.25 2.00229C27.9795 3.17988 27.475 3.17988 25.2045 2.00229C21.925 0.320014 18.5614 0.404127 15.3659 2.42286ZM26.2136 5.11449L27.7273 7.04911L29.325 4.94627C31.5114 2.17051 37.4818 2.00229 40.3409 4.5257C42.9477 6.79677 44.7136 11.2548 44.0409 13.7782C43.6205 15.6287 43.7886 15.881 45.8068 15.881C49.0864 15.881 51.0205 17.2269 52.0295 20.1708C53.375 24.0401 53.2068 27.3205 51.1045 34.8907C50.0955 38.5076 48.9182 43.975 48.3295 47.0031L47.4045 52.4705H8.04999L7.125 47.0031C6.53636 43.975 5.35909 38.5076 4.34999 34.8907C2.16363 27.0682 2.07954 23.6195 3.67727 19.6662C4.68636 17.2269 5.44318 16.6381 8.21818 16.2175C11.4136 15.7128 11.4977 15.6287 11.4136 12.4324C11.3295 8.89961 13.6 5.19861 16.8795 3.43222C19.6545 1.91817 24.4477 2.84342 26.2136 5.11449Z" fill="#9FDB3D"/><path d="M17.2159 6.965C13.4318 10.7501 13.4318 19.3297 17.2159 23.1148 19.7386 25.6382 21.4205 25.6382 23.9432 23.1148 27.7273 19.3297 27.7273 10.7501 23.9432 6.965 22.85 5.87152 21.3364 4.94627 20.5795 4.94627 19.8227 4.94627 18.3091 5.87152 17.2159 6.965zM24.1954 11.0025C25.625 14.7876 24.9523 19.4979 22.5977 21.8531 20.4954 23.956 18.225 22.8625 16.8795 19.1615 15.6182 15.6287 15.7023 13.8623 17.2159 10.3295 18.225 7.80613 18.8136 7.38556 20.7477 7.6379 22.5136 7.80613 23.2704 8.56316 24.1954 11.0025zM31.5114 6.965C29.1568 9.32018 28.1477 13.7782 28.9886 18.068 29.5773 21.3484 32.6886 25.1336 34.875 25.1336 38.7432 25.1336 41.9386 18.068 40.7614 12.0118 40.1727 8.73139 37.0614 4.94627 34.875 4.94627 34.1182 4.94627 32.6045 5.87152 31.5114 6.965zM38.4909 11.0025C39.9204 14.7876 39.2477 19.4979 36.8932 21.8531 34.7909 23.956 32.5204 22.8625 31.175 19.1615 29.9136 15.6287 29.9977 13.8623 31.5114 10.3295 32.5204 7.80614 33.1091 7.38557 35.0432 7.63791 36.8091 7.80614 37.5659 8.56316 38.4909 11.0025zM5.86363 20.0867C4.01363 21.9372 3.76136 23.956 5.10681 27.4046 6.45227 30.9374 9.22727 33.5449 11.8341 33.5449 15.1136 33.5449 16.2068 31.6944 15.7023 27.0682 15.3659 23.956 14.6932 22.526 12.675 20.7596 9.56363 17.9839 8.13409 17.8157 5.86363 20.0867zM11.8341 22.526C15.9545 26.7317 14.6091 33.9655 10.1523 31.2739 9.39545 30.8533 8.13409 29.0869 7.20909 27.3205 5.94772 24.7971 5.86363 23.7036 6.62045 22.1055 7.79772 19.4979 8.80681 19.582 11.8341 22.526zM42.7795 20.7596C40.7614 22.526 40.0886 23.956 39.7523 27.0682 39.2477 31.6944 40.3409 33.5449 43.6205 33.5449 49.5909 33.5449 53.7114 21.8531 48.75 19.2456 46.3955 17.9839 45.6386 18.1521 42.7795 20.7596zM48.8341 22.1055C49.5909 23.7036 49.5068 24.7971 48.2455 27.3205 47.3205 29.0869 46.0591 30.8533 45.3023 31.2739 40.8455 33.9655 39.5 26.7317 43.6205 22.526 46.6477 19.5821 47.6568 19.4979 48.8341 22.1055zM21.925 29.3392C15.1136 34.3019 10.9091 43.975 13.7682 48.2648 15.6182 51.0406 18.3932 51.6294 22.2614 50.0312 26.2136 48.3489 29.2409 48.3489 33.1932 50.0312 39.1636 52.4705 43.5364 49.1901 42.4432 42.8815 41.2659 35.9001 32.9409 26.8158 27.7273 26.8158 26.4659 26.8158 23.8591 27.9934 21.925 29.3392zM32.6886 31.0215C36.5568 33.8814 39.0795 37.4983 40.3409 42.0404 42.0227 48.2648 39.3318 50.1994 32.4364 47.8442 27.7273 46.162 27.7273 46.162 23.0182 47.8442 18.0568 49.5265 15.7864 49.1901 14.7773 46.4984 14.1045 44.732 15.45 39.7693 17.6364 36.3207 19.4864 33.2085 25.625 28.4981 27.7273 28.4981 28.4841 28.4981 30.7545 29.6757 32.6886 31.0215z" fill="#9FDB3D"/></symbol><symbol viewBox="0 0 56 56" fill="none" id="svg-05"><path d="M35.4082 5.2127C33.0741 7.46405 33.6793 12.9192 36.532 16.1231L39.0389 18.894L44.4849 16.0365C47.5105 14.3913 50.5361 12.7461 51.1412 12.2265C52.4379 11.1874 52.5243 6.25179 51.1412 4.86634C49.4987 3.22113 37.0506 3.4809 35.4082 5.2127ZM50.2768 8.24336C50.5361 10.2349 49.8445 10.9277 45.09 13.612C40.0762 16.4694 39.5575 16.556 38.1744 15.3438C37.0506 14.3913 36.6184 12.6595 36.6184 9.7154V5.47247L43.3611 5.73225C49.8445 5.99202 50.0174 6.07861 50.2768 8.24336Z" fill="#9FDB3D"/><path fill-rule="evenodd" clip-rule="evenodd" d="M17.514 2.35522C12.5002 5.03952 9.82036 9.6288 9.82036 15.6901C9.82036 19.7599 9.64747 20.2794 8.00501 20.2794C5.41165 20.2794 1.43517 24.6955 0.743609 28.2457C-0.0343988 32.1423 1.95384 36.212 5.75744 38.4634C8.26435 40.022 10.2526 40.1952 28.579 40.1952C47.7698 40.1952 48.7207 40.2818 49.5852 41.927C50.2768 43.1392 50.2768 44.1783 49.5852 45.3906C48.7207 46.9492 47.7698 47.1224 37.9151 47.1224C31.691 47.1224 27.023 46.776 26.6772 46.2565C25.8992 45.0442 17.9462 45.1308 15.958 46.4297C14.6613 47.209 13.8833 47.0358 11.9815 45.5638C8.95591 43.1392 3.76919 43.0526 1.78095 45.2174C-0.0343988 47.209 -0.120844 53.4435 1.60806 54.9155C3.5963 56.5607 5.4981 55.2619 5.4981 52.3178C5.4981 49.2871 7.05411 48.9408 9.21525 51.4519C10.0797 52.491 11.7222 53.1837 13.1917 53.1837C14.6613 53.1837 16.0444 53.6166 16.3038 54.0496C16.9953 55.1753 25.9856 55.1753 26.6772 54.0496C27.023 53.5301 31.6046 53.1837 37.5693 53.1837C49.153 53.1837 52.0921 52.2312 54.3397 47.9883C56.0686 44.6113 55.9821 42.1001 53.9075 38.7231C51.487 34.74 48.2021 34.1338 26.9365 34.1338H8.09146L6.70833 31.9691C5.41165 29.9775 5.41165 29.6312 6.70833 27.6396C8.52368 24.8687 12.4137 24.7821 16.0444 27.3798C19.2429 29.6312 25.3805 30.3239 30.2214 29.025C33.5064 28.1591 50.8819 18.1146 54.0803 15.2572C55.2906 14.3047 55.6364 12.5729 55.6364 8.15677C55.6364 4.86634 55.2041 2.00886 54.599 1.40273C53.9075 0.710008 48.8072 0.363647 37.4829 0.363647C22.2685 0.363647 21.1447 0.450238 17.514 2.35522ZM27.9739 3.82726C29.8757 3.82726 31.4317 3.39431 31.4317 2.96135C31.4317 2.44181 29.8757 2.09545 27.9739 2.09545C26.0721 2.09545 24.5161 2.44181 24.5161 2.96135C24.5161 3.39431 26.0721 3.82726 27.9739 3.82726ZM53.9075 13.7851L53.7346 8.15677L53.4752 2.5284L43.4476 2.26863C33.9386 2.09545 33.3335 2.18204 32.9013 3.82726C32.5555 5.29929 31.7775 5.55906 28.0603 5.55906C24.8618 5.55906 23.4787 5.2127 23.1329 4.26021C21.9227 1.14296 15.2664 4.43339 13.0188 9.28244C9.82036 15.9499 12.2408 23.3967 18.4649 26.5139C24.689 29.7177 29.6163 28.3323 44.0527 19.6733L53.9075 13.7851ZM9.47458 23.743C10.5984 23.743 11.5493 23.3101 11.5493 22.8771C11.5493 22.3576 10.5984 22.0112 9.47458 22.0112C6.36255 22.0112 2.90474 25.3882 2.38607 29.025C1.95384 31.7093 2.29962 32.6618 4.46076 35.0863L7.05411 38.0304L28.3197 38.4634C40.6813 38.7231 49.8445 39.2427 50.3632 39.7622C52.1786 41.6672 52.265 45.0442 50.6225 47.209C48.9801 49.2006 48.2885 49.2871 38.0015 49.5469C32.0368 49.7201 27.1094 50.2396 27.1094 50.6726C27.1094 51.8849 47.0783 51.6251 49.5852 50.3262C53.821 48.1615 54.8584 42.9661 51.8328 38.8963C50.709 37.2511 49.3259 37.1645 29.2706 36.7316L7.91857 36.2986L5.84388 33.8741C4.72009 32.5752 3.76919 30.7568 3.76919 29.8909C3.76919 27.3798 7.14056 23.743 9.47458 23.743ZM14.5749 49.7201C13.8833 49.7201 12.4137 48.7676 11.3764 47.5553C9.30169 45.2174 4.89298 44.6113 3.07763 46.4297C1.8674 47.6419 1.69451 52.8373 2.8183 53.6167C3.25052 53.8764 3.76919 52.8373 3.94208 51.3653C4.11497 49.8067 4.89298 48.1615 5.67099 47.6419C6.96767 46.8626 7.65923 47.1224 9.38814 49.114C11.5493 51.3653 15.8715 52.4044 15.8715 50.586C15.8715 50.0664 15.2664 49.7201 14.5749 49.7201ZM21.5769 53.1837C25.467 53.1837 25.467 53.1837 25.2076 50.3262C24.9483 47.8151 24.6025 47.5553 21.9227 47.2956C18.2056 46.9492 17.6004 47.4687 17.6004 50.7592C17.6004 53.0971 17.7733 53.1837 21.5769 53.1837Z" fill="#9FDB3D"/></symbol><symbol viewBox="0 0 56 56" fill="none" id="svg-06"><path d="M16.3422 2.29466C15.8241 4.11018 17.033 8.95157 17.9829 8.95157 18.242 8.95157 18.3283 6.96314 18.3283 4.6289 18.242.13333 17.1194-1.07702 16.3422 2.29466zM38.6216 6.35797C38.6216 8.69221 38.7079 10.6806 38.8806 10.6806 39.8305 10.6806 41.0395 5.7528 40.5213 4.02373 39.7442.652049 38.7079 1.8624 38.6216 6.35797zM29.209 4.36954C28.8635 5.57989 28 6.35797 26.9637 6.35797 24.1141 6.35797 21.9552 8.00058 21.9552 10.2484 21.9552 11.6316 21.4371 12.4097 20.6599 12.4097 19.9691 12.4097 18.5874 13.1878 17.5511 14.2252 16.1695 15.6085 15.8241 16.6459 16.3422 18.9802 16.6876 21.1415 16.5149 21.9196 15.6514 21.9196 13.8379 21.9196 11.5927 24.859 11.5927 27.1932 11.5927 29.2681 7.70677 33.1585 5.63427 33.1585 5.11614 33.1585 4.33895 33.9366 3.82083 34.8876 3.3027 35.8386 2.35281 36.6166 1.66198 36.6166-.410525 36.6166.1076 40.5935 2.43916 42.409 3.73447 43.4465 4.68437 45.4349 5.11614 47.6827 5.3752 49.6711 6.49781 52.2647 7.4477 53.475L9.08843 55.6364H46.9116L48.5523 53.475C49.5022 52.2647 50.6248 49.6711 50.8838 47.6827 51.3156 45.4349 52.2655 43.4465 53.5608 42.409 55.8924 40.5935 56.4105 36.6166 54.338 36.6166 53.6472 36.6166 52.6973 35.8386 52.1792 34.8876 51.661 33.9366 50.8838 33.1585 50.3657 33.1585 48.2069 33.1585 44.4073 29.2681 44.4073 27.1068 44.4073 24.7725 42.0757 21.9196 40.1759 21.9196 39.4851 21.9196 39.3124 21.055 39.6578 18.9802 40.1759 16.6459 39.8305 15.6085 38.4489 14.2252 37.4126 13.1878 36.0309 12.4097 35.3401 12.4097 34.4766 12.4097 34.0448 11.5452 34.0448 9.90256 34.0448 8.3464 33.1812 6.27152 31.8859 4.88826L29.7271 2.46757 29.209 4.36954zM32.0586 11.0265C31.7132 11.8045 30.677 12.4097 29.7271 12.4097 28.7772 12.4097 28 12.7555 28 13.2742 28 13.7065 29.7271 14.1388 31.7996 14.1388 38.2761 14.1388 40.435 18.0292 35.5992 21.055 32.5768 22.8706 33.0949 23.3893 38.2761 23.8215 41.8167 24.1674 43.5437 26.3287 42.1621 28.5765 41.2985 29.9597 39.6578 30.1326 28 30.1326 16.3422 30.1326 14.7015 29.9597 13.8379 28.5765 13.1471 27.539 13.1471 26.6745 13.8379 25.5506 14.6151 24.3403 16.3422 23.9945 23.1642 23.8215 31.9723 23.5622 34.9083 21.9196 26.4456 21.9196 21.3507 21.9196 17.6375 20.277 17.6375 18.0292 17.6375 15.9543 20.2281 14.1388 23.3369 14.1388 26.3593 14.1388 27.3092 13.0149 24.9776 12.0639 22.5597 11.1994 23.5959 9.03802 26.7047 8.43285 28.3454 8.17349 29.9861 7.48186 30.3316 6.96314 31.1087 5.66634 32.6631 9.38384 32.0586 11.0265zM13.5788 32.8991C13.1471 34.023 13.3198 34.1959 14.7015 33.5908 17.5511 32.294 29.6407 32.0346 31.1087 33.245 31.9723 34.023 32.6631 34.023 33.0085 33.4179 33.354 32.9856 36.0309 32.294 38.967 32.0346 43.4574 31.6888 44.6663 31.8617 46.2207 33.245 47.257 34.1095 48.6386 34.8876 49.3295 34.8876 49.934 34.8876 50.4521 35.2334 50.4521 35.7521 50.4521 36.2708 42.4211 36.6166 28 36.6166 13.5788 36.6166 5.54791 36.2708 5.54791 35.7521 5.54791 35.2334 6.06604 34.8876 6.67052 34.8876 7.36135 34.8876 8.74302 34.1095 9.86562 33.1585 12.2835 30.9972 14.356 30.9107 13.5788 32.8991zM53.9062 39.0373C53.9062 41.5445 51.3156 41.8038 28 41.8038 4.68437 41.8038 2.09375 41.5445 2.09375 39.0373 2.09375 38.6915 13.7516 38.3457 28 38.3457 42.2484 38.3457 53.9062 38.6915 53.9062 39.0373zM49.5885 44.8297C49.5885 45.9536 47.6887 46.1265 37.499 46.1265 29.9861 46.1265 25.4094 46.4723 25.4094 46.991 25.4094 47.5098 29.8998 47.8556 37.0672 47.8556 49.5022 47.8556 50.1067 48.1149 47.3433 52.0053 46.048 53.9073 45.6162 53.9073 28 53.9073 10.3837 53.9073 9.95197 53.9073 8.65666 52.0053 5.97968 48.2878 6.67052 47.8556 15.565 47.8556 20.8326 47.8556 23.5959 47.5098 23.2505 46.991 22.9915 46.4723 19.1055 46.1265 14.5287 46.1265 7.87948 46.1265 6.41145 45.8671 6.41145 44.8297 6.41145 43.7058 9.3475 43.5329 28 43.5329 46.6525 43.5329 49.5885 43.7058 49.5885 44.8297zM12.0245 7.30896C11.2473 8.43285 12.2835 14.1388 13.2334 14.1388 13.5789 14.1388 13.8379 12.4097 13.8379 10.2484 13.7516 6.44442 13.1471 5.40698 12.0245 7.30896zM43.0256 11.9774C42.9393 16.1272 44.0619 17.1646 44.9254 13.793 45.5299 11.1994 45.0981 8.77866 43.9755 8.3464 43.4574 8.17349 43.112 9.8161 43.0256 11.9774z" fill="#9FDB3D"/></symbol><symbol viewBox="0 0 60 58" fill="none" id="svg-07"><path d="M17.4112 10.1365C20.6952 13.3859 21.9724 12.9346 19.6006 9.41437 18.7795 8.15072 17.32 7.15785 16.2253 7.15785 14.6745 7.15785 14.8569 7.51889 17.4112 10.1365zM40.3994 9.41437C38.0276 12.9346 39.3048 13.3859 42.5888 10.1365 45.143 7.51889 45.3255 7.15785 43.7747 7.15785 42.68 7.15785 41.2204 8.15072 40.3994 9.41437zM19.4181 20.697C17.2288 21.5093 15.678 23.4048 17.1375 23.4048 18.962 23.4048 22.7021 21.5996 22.7021 20.697 22.7021 19.6139 22.0636 19.6139 19.4181 20.697zM37.2978 20.697C37.2978 21.5996 41.038 23.4048 43.0449 23.4048 44.5957 23.4048 41.7678 20.9678 39.396 20.2457 38.1189 19.8846 37.2978 20.0652 37.2978 20.697zM19.0532 25.6614C18.141 26.7445 18.141 27.5568 18.8708 29.2718 20.1479 32.0699 23.9793 32.3407 25.4388 29.7231 27.6282 25.7516 21.9724 22.2314 19.0532 25.6614zM23.888 26.6542C24.709 27.5568 23.5231 29.7231 22.246 29.7231 20.6952 29.7231 19.6918 28.1887 20.4216 27.0153 21.0601 26.0224 22.9758 25.8419 23.888 26.6542zM34.5612 26.1127C33.1928 28.64 34.926 31.5283 37.8452 31.5283 40.6731 31.5283 42.7712 27.8276 40.9468 25.6614 39.3048 23.7659 35.7471 23.9464 34.5612 26.1127zM39.8521 27.6471C40.3082 29.2718 37.2978 30.2647 36.3856 28.7302 35.9295 28.0984 35.8383 27.1958 36.1119 26.7445 36.7505 25.6614 39.3048 26.2932 39.8521 27.6471zM25.4388 45.0675C25.4388 45.5188 25.8949 45.9701 26.3511 45.9701 26.8984 45.9701 27.2633 45.5188 27.2633 45.0675 27.2633 44.5259 26.8984 44.1649 26.3511 44.1649 25.8949 44.1649 25.4388 44.5259 25.4388 45.0675zM32.7367 45.0675C32.7367 45.5188 33.1928 45.9701 33.6489 45.9701 34.1963 45.9701 34.5612 45.5188 34.5612 45.0675 34.5612 44.5259 34.1963 44.1649 33.6489 44.1649 33.1928 44.1649 32.7367 44.5259 32.7367 45.0675z" fill="#9FDB3D"/><path fill-rule="evenodd" clip-rule="evenodd" d="M8.28888 2.37401C6.73809 5.44288 6.28197 10.0462 7.1942 14.1079C7.92399 17.3573 7.83277 19.6139 6.64686 24.3977C5.18729 30.1744 5.00485 30.5355 2.99794 30.0841C0.534911 29.4523 0.443688 29.6328 1.72081 32.9725C2.4506 34.7777 2.4506 35.5901 1.62959 36.0414C-1.01588 37.7563 5.55218 43.8038 13.1237 46.6019C17.2288 48.1364 17.6849 48.5877 17.9585 51.3858C18.141 53.1007 18.6883 54.9962 19.1444 55.5378C21.425 58.3358 38.575 58.3358 40.8555 55.5378C41.3117 54.9962 41.859 53.1007 42.0415 51.3858C42.3151 48.5877 42.7712 48.1364 46.8763 46.6019C54.4478 43.8038 61.0159 37.7563 58.3704 36.0414C57.5494 35.5901 57.5494 34.7777 58.2792 32.9725C59.5563 29.6328 59.4651 29.4523 57.0021 30.0841C54.9951 30.5355 54.8127 30.1744 53.3531 24.488C52.2584 19.7944 52.076 17.3573 52.7146 13.8372C53.5356 9.59489 52.9882 4.17923 51.5287 1.83244C50.5252 0.298005 48.9744 0.568788 42.5888 3.45714C34.3787 7.06758 25.6213 7.06758 17.4112 3.45714C10.6607 0.388266 9.38356 0.298005 8.28888 2.37401ZM23.067 9.41437C22.7021 8.60202 20.604 7.06758 18.2322 5.89419C11.8466 2.73505 10.2046 2.37401 9.566 4.08897C8.3801 7.2481 9.01867 14.9203 10.8431 18.26C12.6676 21.5093 12.6676 21.5996 10.9344 21.5996C9.10989 21.5996 8.65377 22.412 7.65032 28.2789C7.28543 30.6257 6.55564 31.8894 5.27852 32.1602C3.91017 32.5212 3.72772 32.8822 4.54873 33.8751C5.36974 34.868 5.27852 35.4998 4.45751 36.4927C2.90671 38.2979 5.00485 40.735 10.2958 43.2623C15.0394 45.5188 16.3165 45.5188 16.3165 43.3525C16.3165 41.3668 19.5093 37.1245 20.3303 37.9369C20.6952 38.2979 20.2391 39.7421 19.3269 41.3668C17.8673 43.8941 17.7761 44.3454 19.0532 46.6019C20.604 49.4 25.4388 50.4831 27.8106 48.5877C29.4527 47.2337 29.4527 42.9012 27.7194 41.457C25.8037 39.8323 25.9862 37.2148 28.1755 36.6732C32.6455 35.4998 35.4734 38.8395 32.2806 41.457C30.5473 42.9012 30.5473 47.2337 32.1893 48.5877C34.5612 50.4831 39.396 49.4 40.9468 46.6019C42.2239 44.3454 42.1327 43.8941 40.6731 41.3668C39.7609 39.7421 39.3048 38.2979 39.6697 37.9369C40.4907 37.1245 43.6835 41.3668 43.6835 43.3525C43.6835 45.5188 44.9606 45.5188 49.7042 43.2623C54.9951 40.735 57.0933 38.2979 55.5425 36.4927C54.7215 35.4998 54.6303 34.868 55.4513 33.8751C56.2723 32.8822 56.0898 32.5212 54.7215 32.1602C53.4444 31.8894 52.7146 30.6257 52.3497 28.2789C51.3462 22.412 50.8901 21.5996 49.0656 21.5996C47.3324 21.5996 47.3324 21.5093 49.1569 18.26C50.3428 16.0034 50.9813 13.1151 50.9813 9.86568C50.9813 2.37401 50.434 2.01296 43.7747 4.90132C40.6731 6.34549 37.754 8.24098 37.2066 9.14359C36.6593 10.0462 35.9295 10.5878 35.3822 10.317C34.926 9.95594 34.7436 9.32411 35.0173 8.8728C35.3822 8.4215 33.1928 8.06045 30 8.06045C26.8072 8.06045 24.6178 8.4215 24.9827 8.8728C25.2564 9.32411 25.0739 9.95594 24.5266 10.317C23.9793 10.5878 23.3407 10.2267 23.067 9.41437ZM28.9053 39.8323C29.7263 40.6447 30.2737 40.6447 31.0947 39.8323C31.9157 39.02 31.7332 38.7492 30 38.7492C28.2668 38.7492 28.0843 39.02 28.9053 39.8323ZM30.9122 51.7468C30.9122 52.5591 30.5473 53.191 30.0912 53.191C29.6351 53.191 29.0878 52.5591 28.9053 51.7468C28.5404 49.7611 27.2633 51.2052 27.2633 53.7325C27.2633 55.8988 29.179 57.0722 31.3683 56.2598C32.9191 55.628 33.1928 51.8371 31.8245 50.9344C31.3683 50.6637 30.9122 51.0247 30.9122 51.7468ZM25.4388 53.8228C25.4388 53.1007 24.8003 52.1981 23.9793 51.9273C21.3338 50.9345 19.783 51.2955 20.1479 52.9202C20.5128 54.9962 25.4388 55.7183 25.4388 53.8228ZM34.5612 53.7325C34.5612 55.7183 39.4872 54.9962 39.8521 52.9202C40.0345 51.9273 39.5784 51.3858 38.4837 51.476C35.8383 51.5663 34.5612 52.3786 34.5612 53.7325Z" fill="#9FDB3D"/></symbol><symbol viewBox="0 0 50 62" fill="none" id="svg-08"><path d="M18.0205 1.62313C17.4389 2.29642 15.597 3.25825 13.9491 3.64299C12.3012 4.12391 10.4594 5.37429 9.87773 6.62468C9.29611 7.77888 7.84205 9.414 6.6788 10.1835C5.32167 11.1453 4.64311 12.6842 4.64311 14.8965C4.64311 16.724 4.25536 18.4553 3.67374 18.7438C2.41355 19.5133 2.41355 23.7454 3.67374 24.5148C4.25536 24.8034 4.64311 26.5347 4.64311 28.266C4.64311 30.4782 5.32167 31.921 6.77573 32.979L9.0053 34.5179H5.9033C0.862551 34.6141 -1.8517 39.2309 2.31661 40.7698C3.28599 41.1546 3.67374 43.0782 3.67374 47.7912C3.67374 53.1775 3.28599 54.7165 1.73499 56.063C0.0870512 57.4096 -0.00988634 58.0829 0.765613 59.6218C1.73499 61.4493 2.8013 61.5455 25 61.5455C47.1987 61.5455 48.265 61.4493 49.2343 59.6218C50.0098 58.0829 49.9129 57.4096 48.265 56.063C46.714 54.7165 46.3262 53.1775 46.3262 47.7912C46.3262 43.0782 46.714 41.1546 47.6833 40.7698C51.8517 39.2309 49.1374 34.6141 44.0967 34.5179H40.9947L43.2242 32.979C44.6783 31.921 45.3568 30.4782 45.3568 28.266C45.3568 26.5347 45.7446 24.8034 46.3262 24.5148C47.5864 23.7454 47.5864 19.5133 46.3262 18.7438C45.8415 18.4553 45.3568 16.724 45.3568 14.8965C45.3568 12.6842 44.6783 11.1453 43.3212 10.1835C42.1579 9.414 40.7038 7.77888 40.1222 6.62468C39.5406 5.47048 37.7957 4.12391 36.3417 3.73917C34.7907 3.35444 32.9488 2.48879 32.0764 1.8155C30.0407 0.0841963 19.3776 -0.0119874 18.0205 1.62313ZM31.7856 4.12391C33.1427 4.98956 34.8876 5.75903 35.857 5.75903C36.8263 5.75903 38.1835 7.00941 38.959 8.54835C39.8314 10.0873 41.0916 11.53 41.964 11.8186C42.7395 12.2033 43.4181 13.5499 43.4181 14.8003C43.4181 16.1469 43.9028 18.3591 44.5813 19.7056C45.4538 21.5331 45.4538 22.3988 44.5813 23.2644C43.9028 23.9377 43.4181 25.7652 43.4181 27.4003C43.4181 30.7668 39.2498 34.6141 35.5662 34.6141C33.6274 34.6141 33.7243 34.4217 36.4386 31.3439C39.5406 27.8812 41.1885 22.9759 39.9283 20.956C39.5406 20.2827 38.7651 21.5331 37.9896 24.1301C37.311 26.5347 35.3723 29.7087 33.7243 31.2477C30.9132 33.9408 30.1377 34.1332 21.6072 34.4217C13.4644 34.8065 12.3012 34.6141 9.58692 32.5942C7.35736 30.9591 6.58186 29.6126 6.58186 27.4003C6.58186 25.7652 6.09717 23.9377 5.41861 23.2644C4.54617 22.3988 4.54617 21.5331 5.41861 19.7056C6.09717 18.3591 6.58186 16.1469 6.58186 14.8003C6.58186 13.5499 7.26042 12.2033 8.03592 11.8186C8.90836 11.53 10.1685 10.0873 11.041 8.54835C11.8165 7.00941 13.2705 5.75903 14.2399 5.75903C15.2093 5.75903 17.0511 4.98956 18.1174 4.02772C20.8317 1.91168 28.6836 1.91168 31.7856 4.12391ZM47.1017 37.692C46.714 38.6538 41.4793 38.9424 25 38.9424C8.52061 38.9424 3.28599 38.6538 2.99517 37.692C2.60742 36.8263 7.4543 36.5378 25 36.5378C42.5457 36.5378 47.3925 36.8263 47.1017 37.692ZM44.3875 55.7745H5.61249V41.347H44.3875V55.7745ZM47.2956 58.66C47.2956 59.2371 39.2498 59.6218 25 59.6218C10.7502 59.6218 2.70436 59.2371 2.70436 58.66C2.70436 58.0829 10.7502 57.6982 25 57.6982C39.2498 57.6982 47.2956 58.0829 47.2956 58.66Z" fill="#9FDB3D"/><path d="M21.0255 6.72086C15.2093 8.45217 9.48998 15.0888 9.48998 20.0904C9.48998 23.3606 11.1379 22.3988 11.8165 18.7438C12.592 14.8965 17.245 9.79874 20.9286 9.02927C25.3877 8.06743 26.0663 7.6827 25.4847 6.72086C24.8061 5.66284 24.5153 5.66284 21.0255 6.72086Z" fill="#9FDB3D"/><path fill-rule="evenodd" clip-rule="evenodd" d="M13.1736 44.4248C12.8828 45.0981 12.7859 47.2141 12.7859 49.0416C12.8828 51.831 13.2705 52.5042 15.2093 52.6966C16.4695 52.889 17.9235 52.6004 18.5052 52.0233C19.8623 50.6768 30.1377 50.6768 31.4948 52.0233C32.0764 52.6004 33.5305 52.889 34.7907 52.6966C36.7294 52.5042 37.1172 51.831 37.2141 49.0416C37.2141 47.2141 37.1172 45.0981 36.8264 44.4248C36.3417 43.0782 33.1427 42.8859 32.2703 44.2325C31.9795 44.7134 28.6836 45.1943 25 45.1943C21.3164 45.1943 18.0205 44.7134 17.7297 44.2325C16.8572 42.8859 13.6583 43.0782 13.1736 44.4248ZM33.6274 45.8676C32.8519 46.637 29.556 47.118 25 47.118C20.4439 47.118 17.148 46.637 16.3725 45.8676C15.2093 44.9057 15.1124 45.0019 15.694 46.5409C15.9848 47.5027 15.7909 48.9454 15.2093 49.6187C14.3369 50.6768 14.4338 50.9653 15.597 50.9653C16.4695 50.9653 17.4389 50.4844 17.7297 50.0035C18.0205 49.4264 21.3164 49.0416 25 49.0416C28.6836 49.0416 31.9795 49.4264 32.2703 50.0035C32.5611 50.4844 33.5305 50.9653 34.4029 50.9653C35.5662 50.9653 35.6631 50.6768 34.7907 49.6187C34.209 48.9454 34.0152 47.5027 34.306 46.5409C34.8876 45.0019 34.7907 44.9057 33.6274 45.8676Z" fill="#9FDB3D"/></symbol><symbol viewBox="0 0 30 30" fill="none" id="svg-arrow"><path d="M14.0073 19.5815L6.39836 12.2239C6.27213 12.1031 6.17194 11.9593 6.10357 11.8009C6.0352 11.6425 6 11.4726 6 11.301C6 11.1294 6.0352 10.9594 6.10357 10.801C6.17194 10.6426 6.27213 10.4989 6.39836 10.378C6.65068 10.1359 6.99201 10 7.3478 10C7.70358 10 8.04491 10.1359 8.29724 10.378L15.0308 16.8127L21.6971 10.378C21.9494 10.1359 22.2908 10 22.6465 10C23.0023 10 23.3437 10.1359 23.596 10.378C23.7232 10.4984 23.8245 10.642 23.8938 10.8004C23.9632 10.9588 23.9993 11.129 24 11.301C23.9993 11.4729 23.9632 11.6431 23.8938 11.8015C23.8245 11.9599 23.7232 12.1035 23.596 12.2239L15.987 19.5815C15.8609 19.7135 15.7078 19.8188 15.5375 19.8908C15.3671 19.9628 15.1832 20 14.9972 20C14.8112 20 14.6272 19.9628 14.4569 19.8908C14.2865 19.8188 14.1334 19.7135 14.0073 19.5815Z" fill="#09035D"/></symbol><symbol viewBox="0 0 30 30" fill="none" id="svg-facebook"><path d="M0 4C0 1.79086 1.79086 0 4 0H26C28.2091 0 30 1.79086 30 4V26C30 28.2091 28.2091 30 26 30H4C1.79086 30 0 28.2091 0 26V4Z" fill="#0B84EE"/><path d="M16.2428 15.2736H19.0344L19.4728 12.4204H16.2422V10.861C16.2422 9.67574 16.6272 8.62471 17.7292 8.62471H19.5V6.13481C19.1889 6.09254 18.5308 6 17.2875 6C14.6911 6 13.169 7.37947 13.169 10.5223V12.4204H10.5V15.2736H13.169V23.1158C13.6976 23.1957 14.233 23.25 14.7826 23.25C15.2793 23.25 15.7642 23.2043 16.2428 23.1392V15.2736Z" fill="#fff"/></symbol><symbol viewBox="0 0 30 30" fill="none" id="svg-instagram"><path d="M0 4C0 1.79086 1.79086 0 4 0H26C28.2091 0 30 1.79086 30 4V26C30 28.2091 28.2091 30 26 30H4C1.79086 30 0 28.2091 0 26V4Z" fill="url(#kpaint0_radial_69_1356)"/><path d="M15 8.85542C16.988 8.85542 17.259 8.85542 18.0723 8.85542C18.7952 8.85542 19.1566 9.03614 19.4277 9.12651C19.7892 9.30723 20.0602 9.39759 20.3313 9.66868C20.6024 9.93976 20.7831 10.2108 20.8735 10.5723C20.9639 10.8434 21.0542 11.2048 21.1446 11.9277C21.1446 12.741 21.1446 12.9217 21.1446 15C21.1446 17.0783 21.1446 17.259 21.1446 18.0723C21.1446 18.7952 20.9639 19.1566 20.8735 19.4277C20.6928 19.7892 20.6024 20.0602 20.3313 20.3313C20.0602 20.6024 19.7892 20.7831 19.4277 20.8735C19.1566 20.9639 18.7952 21.0542 18.0723 21.1446C17.259 21.1446 17.0783 21.1446 15 21.1446C12.9217 21.1446 12.741 21.1446 11.9277 21.1446C11.2048 21.1446 10.8434 20.9639 10.5723 20.8735C10.2108 20.6928 9.93976 20.6024 9.66868 20.3313C9.39759 20.0602 9.21687 19.7892 9.12651 19.4277C9.03614 19.1566 8.94578 18.7952 8.85542 18.0723C8.85542 17.259 8.85542 17.0783 8.85542 15C8.85542 12.9217 8.85542 12.741 8.85542 11.9277C8.85542 11.2048 9.03614 10.8434 9.12651 10.5723C9.30723 10.2108 9.39759 9.93976 9.66868 9.66868C9.93976 9.39759 10.2108 9.21687 10.5723 9.12651C10.8434 9.03614 11.2048 8.94578 11.9277 8.85542C12.741 8.85542 13.012 8.85542 15 8.85542ZM15 7.5C12.9217 7.5 12.741 7.5 11.9277 7.5C11.1145 7.5 10.5723 7.68072 10.1205 7.86145C9.66868 8.04217 9.21687 8.31325 8.76506 8.76506C8.31325 9.21687 8.13253 9.57831 7.86145 10.1205C7.68072 10.5723 7.59036 11.1145 7.5 11.9277C7.5 12.741 7.5 13.012 7.5 15C7.5 17.0783 7.5 17.259 7.5 18.0723C7.5 18.8855 7.68072 19.4277 7.86145 19.8795C8.04217 20.3313 8.31325 20.7831 8.76506 21.2349C9.21687 21.6867 9.57831 21.8675 10.1205 22.1386C10.5723 22.3193 11.1145 22.4096 11.9277 22.5C12.741 22.5 13.012 22.5 15 22.5C16.988 22.5 17.259 22.5 18.0723 22.5C18.8855 22.5 19.4277 22.3193 19.8795 22.1386C20.3313 21.9578 20.7831 21.6867 21.2349 21.2349C21.6867 20.7831 21.8675 20.4217 22.1386 19.8795C22.3193 19.4277 22.4096 18.8855 22.5 18.0723C22.5 17.259 22.5 16.988 22.5 15C22.5 13.012 22.5 12.741 22.5 11.9277C22.5 11.1145 22.3193 10.5723 22.1386 10.1205C21.9578 9.66868 21.6867 9.21687 21.2349 8.76506C20.7831 8.31325 20.4217 8.13253 19.8795 7.86145C19.4277 7.68072 18.8855 7.59036 18.0723 7.5C17.259 7.5 17.0783 7.5 15 7.5Z" fill="#fff"/><path d="M15 11.1145C12.8313 11.1145 11.1145 12.8313 11.1145 15 11.1145 17.1687 12.8313 18.8855 15 18.8855 17.1687 18.8855 18.8855 17.1687 18.8855 15 18.8855 12.8313 17.1687 11.1145 15 11.1145zM15 17.5301C13.6446 17.5301 12.4699 16.4458 12.4699 15 12.4699 13.6446 13.5542 12.4699 15 12.4699 16.3554 12.4699 17.5301 13.5542 17.5301 15 17.5301 16.3554 16.3554 17.5301 15 17.5301zM18.9759 11.9277C19.475 11.9277 19.8795 11.5231 19.8795 11.0241 19.8795 10.525 19.475 10.1205 18.9759 10.1205 18.4769 10.1205 18.0723 10.525 18.0723 11.0241 18.0723 11.5231 18.4769 11.9277 18.9759 11.9277z" fill="#fff"/><defs><radialGradient id="kpaint0_radial_69_1356" cx="0" cy="0" r="1" gradientUnits="userSpaceOnUse" gradientTransform="translate(30.604 .61) scale(69.2789)"><stop stop-color="#F9ED32"/><stop offset=".36" stop-color="#EE2A7B"/><stop offset=".44" stop-color="#D22A8A"/><stop offset=".6" stop-color="#8B2AB2"/><stop offset=".83" stop-color="#1B2AF0"/><stop offset=".88" stop-color="#002AFF"/></radialGradient></defs></symbol><symbol viewBox="0 0 30 30" fill="none" id="svg-s-facebook"><rect width="30" height="30" rx="4" fill="#7871DE"/><path d="M16.2428 15.2736H19.0344L19.4728 12.4204H16.2422V10.861C16.2422 9.67574 16.6272 8.62471 17.7292 8.62471H19.5V6.13481C19.1889 6.09254 18.5308 6 17.2875 6C14.6911 6 13.169 7.37947 13.169 10.5223V12.4204H10.5V15.2736H13.169V23.1158C13.6976 23.1957 14.233 23.25 14.7826 23.25C15.2793 23.25 15.7642 23.2043 16.2428 23.1392V15.2736Z" fill="#fff"/></symbol><symbol viewBox="0 0 30 30" fill="none" id="svg-s-instagram"><rect width="30" height="30" rx="4" fill="#7871DE"/><path d="M15 8.85542C16.988 8.85542 17.259 8.85542 18.0723 8.85542C18.7952 8.85542 19.1566 9.03614 19.4277 9.12651C19.7892 9.30723 20.0602 9.39759 20.3313 9.66868C20.6024 9.93976 20.7831 10.2108 20.8735 10.5723C20.9639 10.8434 21.0542 11.2048 21.1446 11.9277C21.1446 12.741 21.1446 12.9217 21.1446 15C21.1446 17.0783 21.1446 17.259 21.1446 18.0723C21.1446 18.7952 20.9639 19.1566 20.8735 19.4277C20.6928 19.7892 20.6024 20.0602 20.3313 20.3313C20.0602 20.6024 19.7892 20.7831 19.4277 20.8735C19.1566 20.9639 18.7952 21.0542 18.0723 21.1446C17.259 21.1446 17.0783 21.1446 15 21.1446C12.9217 21.1446 12.741 21.1446 11.9277 21.1446C11.2048 21.1446 10.8434 20.9639 10.5723 20.8735C10.2108 20.6928 9.93976 20.6024 9.66868 20.3313C9.39759 20.0602 9.21687 19.7892 9.12651 19.4277C9.03614 19.1566 8.94578 18.7952 8.85542 18.0723C8.85542 17.259 8.85542 17.0783 8.85542 15C8.85542 12.9217 8.85542 12.741 8.85542 11.9277C8.85542 11.2048 9.03614 10.8434 9.12651 10.5723C9.30723 10.2108 9.39759 9.93976 9.66868 9.66868C9.93976 9.39759 10.2108 9.21687 10.5723 9.12651C10.8434 9.03614 11.2048 8.94578 11.9277 8.85542C12.741 8.85542 13.012 8.85542 15 8.85542ZM15 7.5C12.9217 7.5 12.741 7.5 11.9277 7.5C11.1145 7.5 10.5723 7.68072 10.1205 7.86145C9.66868 8.04217 9.21687 8.31325 8.76506 8.76506C8.31325 9.21687 8.13253 9.57831 7.86145 10.1205C7.68072 10.5723 7.59036 11.1145 7.5 11.9277C7.5 12.741 7.5 13.012 7.5 15C7.5 17.0783 7.5 17.259 7.5 18.0723C7.5 18.8855 7.68072 19.4277 7.86145 19.8795C8.04217 20.3313 8.31325 20.7831 8.76506 21.2349C9.21687 21.6867 9.57831 21.8675 10.1205 22.1386C10.5723 22.3193 11.1145 22.4096 11.9277 22.5C12.741 22.5 13.012 22.5 15 22.5C16.988 22.5 17.259 22.5 18.0723 22.5C18.8855 22.5 19.4277 22.3193 19.8795 22.1386C20.3313 21.9578 20.7831 21.6867 21.2349 21.2349C21.6867 20.7831 21.8675 20.4217 22.1386 19.8795C22.3193 19.4277 22.4096 18.8855 22.5 18.0723C22.5 17.259 22.5 16.988 22.5 15C22.5 13.012 22.5 12.741 22.5 11.9277C22.5 11.1145 22.3193 10.5723 22.1386 10.1205C21.9578 9.66868 21.6867 9.21687 21.2349 8.76506C20.7831 8.31325 20.4217 8.13253 19.8795 7.86145C19.4277 7.68072 18.8855 7.59036 18.0723 7.5C17.259 7.5 17.0783 7.5 15 7.5Z" fill="#fff"/><path d="M15 11.1145C12.8313 11.1145 11.1145 12.8313 11.1145 15 11.1145 17.1687 12.8313 18.8855 15 18.8855 17.1687 18.8855 18.8855 17.1687 18.8855 15 18.8855 12.8313 17.1687 11.1145 15 11.1145zM15 17.5301C13.6446 17.5301 12.4699 16.4458 12.4699 15 12.4699 13.6446 13.5542 12.4699 15 12.4699 16.3554 12.4699 17.5301 13.5542 17.5301 15 17.5301 16.3554 16.3554 17.5301 15 17.5301zM18.9759 11.9277C19.475 11.9277 19.8795 11.5231 19.8795 11.0241 19.8795 10.525 19.475 10.1205 18.9759 10.1205 18.4769 10.1205 18.0723 10.525 18.0723 11.0241 18.0723 11.5231 18.4769 11.9277 18.9759 11.9277z" fill="#fff"/></symbol><symbol viewBox="0 0 30 30" fill="none" id="svg-s-telegram"><rect width="30" height="30" rx="4" fill="#7871DE"/><path d="M21 9.45167L18.7459 21.2192C18.7459 21.2192 18.4306 22.0351 17.5642 21.6438L12.3634 17.5144L12.3393 17.5023C13.0418 16.849 18.4893 11.777 18.7274 11.5471C19.0959 11.191 18.8671 10.979 18.4392 11.248L10.3926 16.5397L7.28823 15.4581C7.28823 15.4581 6.79969 15.2781 6.75269 14.8868C6.70508 14.4949 7.30431 14.2829 7.30431 14.2829L19.9599 9.14171C19.9599 9.14171 21 8.66845 21 9.45167Z" fill="#fff"/></symbol><symbol viewBox="0 0 30 30" fill="none" id="svg-s-vk"><rect width="30" height="30" rx="4" fill="#7871DE"/><path d="M15.7369 20.25C10.0995 20.25 6.88398 16.3086 6.75 9.75H9.57386C9.66661 14.5638 11.7484 16.6029 13.3974 17.0233V9.75H16.0564V13.9017C17.6847 13.723 19.3955 11.8311 19.9727 9.75H22.6316C22.4142 10.8293 21.9806 11.8512 21.3582 12.7519C20.7358 13.6525 19.9378 14.4125 19.0142 14.9842C20.0452 15.5067 20.9557 16.2461 21.6859 17.1538C22.416 18.0615 22.9491 19.1168 23.25 20.25H20.3231C20.053 19.2657 19.504 18.3846 18.745 17.7171C17.986 17.0496 17.0507 16.6255 16.0564 16.4977V20.25H15.7369Z" fill="#fff"/></symbol><symbol viewBox="0 0 30 30" fill="none" id="svg-telegram"><rect width="30" height="30" rx="4" fill="#27A6E5"/><path d="M21 9.45167L18.7459 21.2192C18.7459 21.2192 18.4306 22.0351 17.5642 21.6438L12.3634 17.5144L12.3393 17.5023C13.0418 16.849 18.4893 11.777 18.7274 11.5471C19.0959 11.191 18.8671 10.979 18.4392 11.248L10.3926 16.5397L7.28823 15.4581C7.28823 15.4581 6.79969 15.2781 6.75269 14.8868C6.70508 14.4949 7.30431 14.2829 7.30431 14.2829L19.9599 9.14171C19.9599 9.14171 21 8.66845 21 9.45167Z" fill="#FEFEFE"/></symbol><symbol viewBox="0 0 30 30" fill="none" id="svg-vk"><rect width="30" height="30" rx="4" fill="#07F"/><path d="M15.7369 20.25C10.0995 20.25 6.88398 16.3086 6.75 9.75H9.57386C9.66661 14.5638 11.7484 16.6029 13.3974 17.0233V9.75H16.0564V13.9017C17.6847 13.723 19.3955 11.8311 19.9727 9.75H22.6316C22.4142 10.8293 21.9806 11.8512 21.3582 12.7519C20.7358 13.6525 19.9378 14.4125 19.0142 14.9842C20.0452 15.5067 20.9557 16.2461 21.6859 17.1538C22.416 18.0615 22.9491 19.1168 23.25 20.25H20.3231C20.053 19.2657 19.504 18.3846 18.745 17.7171C17.986 17.0496 17.0507 16.6255 16.0564 16.4977V20.25H15.7369Z" fill="#fff"/></symbol></svg>