<svg width="40" height="34" viewBox="0 0 40 34" fill="none" xmlns="http://www.w3.org/2000/svg">
<path d="M6.79925 5.54531C6.86211 5.80027 7.55358 6.88383 8.37077 7.9674C10.2566 10.262 11.3252 9.56088 9.56512 7.20253C8.30791 5.48157 6.79925 4.52548 6.79925 5.54531Z" fill="#9FDB3D"/>
<path d="M30.7492 6.75635C29.3662 8.54105 29.0519 9.56087 29.932 9.56087C30.4349 9.56087 33.2007 6.11896 33.2007 5.41783C33.2007 4.58922 31.8807 5.29035 30.7492 6.75635Z" fill="#9FDB3D"/>
<path d="M11.4509 11.4731C9.81657 12.1104 8.93651 13.3852 10.068 13.3852C11.1366 13.3852 13.5253 11.728 13.0853 11.2818C12.8967 11.0906 12.1424 11.2181 11.4509 11.4731Z" fill="#9FDB3D"/>
<path d="M26.9147 11.5368C26.9147 12.1742 28.9891 13.3852 30.1206 13.3852C30.6863 13.3852 30.6863 13.194 30.1206 12.4929C29.2405 11.4093 26.9147 10.7082 26.9147 11.5368Z" fill="#9FDB3D"/>
<path d="M7.23928 21.7351C4.09624 22.4999 2.27328 23.5197 2.71331 24.2846C2.96475 24.6033 3.65622 24.5396 4.47341 24.0934C5.22773 23.6472 6.98783 23.201 8.37077 23.0098C9.75371 22.7549 10.8223 22.3724 10.7595 21.99C10.6338 21.1614 10.0051 21.0977 7.23928 21.7351Z" fill="#9FDB3D"/>
<path d="M29.1777 21.4801C28.4862 22.245 29.5548 22.9461 31.3778 22.9461C32.4464 22.9461 34.0808 23.3923 35.0866 23.9022C36.2809 24.5396 37.0352 24.6033 37.2867 24.2209C37.9782 23.1373 30.1834 20.524 29.1777 21.4801Z" fill="#9FDB3D"/>
<path d="M7.49072 25.8781C6.42209 26.7704 5.54204 27.9177 5.54204 28.4277C5.54204 29.7024 5.85634 29.575 7.93074 27.4078C8.99938 26.3243 10.3195 25.4957 10.8223 25.4957C11.3881 25.4957 11.8281 25.177 11.8281 24.8583C11.8281 23.6472 9.4394 24.2209 7.49072 25.8781Z" fill="#9FDB3D"/>
<path d="M28.1719 24.8583C28.1719 25.177 28.6119 25.4957 29.1777 25.4957C29.6805 25.4957 31.0006 26.3243 32.0693 27.4078C34.1437 29.575 34.458 29.7024 34.458 28.4277C34.458 27.2166 30.8749 24.2209 29.3662 24.2209C28.7376 24.2209 28.1719 24.4758 28.1719 24.8583Z" fill="#9FDB3D"/>
<path fill-rule="evenodd" clip-rule="evenodd" d="M11.3252 14.7875C9.62798 16.5084 10.9481 19.1217 13.5253 19.1217C15.3483 19.1217 16.5427 17.0184 15.5997 15.2974C14.8454 13.8951 12.5196 13.5764 11.3252 14.7875ZM12.1424 17.2096C12.8339 18.3569 14.3425 17.9107 14.3425 16.5722C14.3425 15.871 13.9654 15.2974 13.4625 15.2974C12.331 15.2974 11.6395 16.3172 12.1424 17.2096Z" fill="#9FDB3D"/>
<path fill-rule="evenodd" clip-rule="evenodd" d="M24.4002 15.2337C23.3945 17.2096 24.6517 19.2492 26.7261 18.9943C28.8634 18.7393 29.9949 16.9546 29.0519 15.4249C28.0462 13.7677 25.2803 13.6402 24.4002 15.2337ZM26.789 17.7195C27.3547 17.592 27.8576 17.0821 27.8576 16.5722C27.8576 16.0623 27.3547 15.5524 26.789 15.4249C25.9718 15.2974 25.6575 15.6161 25.6575 16.5722C25.6575 17.5283 25.9718 17.847 26.789 17.7195Z" fill="#9FDB3D"/>
<path fill-rule="evenodd" clip-rule="evenodd" d="M3.90766 0.956087C2.21042 2.10339 1.58181 6.05522 2.399 10.007C2.96475 12.5566 2.90189 13.3852 1.7704 16.126C-0.304007 20.9702 -0.55545 25.3044 1.01607 28.4914C3.34191 33.0169 8.05647 35.0565 12.771 33.4631C14.9083 32.6982 16.1655 32.6344 17.7999 33.0806C19.1828 33.4631 20.8172 33.4631 22.2001 33.0806C23.8345 32.6344 25.0917 32.6982 27.229 33.4631C31.9435 35.0565 36.6581 33.0169 38.9839 28.4914C40.5555 25.3044 40.304 20.9702 38.2296 16.126C37.0981 13.3852 37.0352 12.5566 37.601 10.007C38.481 5.92774 37.7896 2.10339 35.9666 0.892348C34.7094 0 34.3322 0 32.7607 0.892348C31.8178 1.466 30.2463 2.54957 29.3034 3.2507C27.8576 4.46174 27.4176 4.52548 25.5946 3.88809C23.0173 2.99574 16.9827 2.99574 14.4054 3.88809C12.771 4.46174 12.1424 4.398 10.8223 3.44191C7.86788 1.33852 5.85634 0 5.54204 0C5.35346 0 4.59913 0.446174 3.90766 0.956087ZM12.4567 7.33C12.4567 6.82009 11.1366 5.41783 9.56512 4.14304C6.54781 1.84843 4.72485 1.33852 3.90766 2.67704C3.02761 4.07931 3.46763 10.7719 4.53627 12.4291C5.79348 14.3413 5.85634 15.3611 4.66199 14.915C3.65622 14.5325 1.89612 18.5481 1.39323 22.6274C0.450321 29.5112 7.17641 34.6104 13.3368 31.7421C15.2854 30.9135 15.8512 29.3837 15.7883 25.3044C15.7255 22.245 16.4169 21.2889 17.0455 23.5835C17.2341 24.4121 17.6742 24.7308 18.3656 24.4758C19.6228 23.9659 19.6857 21.9263 18.4285 21.4164C16.6684 20.779 17.4856 20.0778 20 20.0778C22.5144 20.0778 23.3316 20.779 21.5715 21.4164C20.3143 21.9263 20.3772 23.9659 21.6344 24.4758C22.3258 24.7308 22.7659 24.4121 22.9545 23.5835C23.5831 21.2889 24.2745 22.245 24.2117 25.3682C24.1488 29.3837 24.7146 30.9135 26.6632 31.7421C32.8236 34.6104 39.5497 29.5112 38.6068 22.6274C38.1039 18.5481 36.3438 14.5325 35.338 14.915C34.2065 15.3611 34.2065 14.66 35.4637 12.1742C36.4695 10.1345 36.8467 3.95183 36.0923 2.61331C35.8409 2.23087 35.1494 1.91217 34.5208 1.91217C33.0122 1.91217 27.5433 6.1827 27.5433 7.33C27.5433 7.83991 27.229 8.28609 26.8518 8.28609C26.4746 8.28609 26.2861 7.71244 26.4746 7.07505C26.8518 5.48157 24.2745 4.46174 20 4.46174C15.7255 4.46174 13.1482 5.48157 13.5253 7.07505C13.7139 7.71244 13.5253 8.28609 13.1482 8.28609C12.771 8.28609 12.4567 7.83991 12.4567 7.33ZM23.2688 31.4871C23.8345 30.9135 22.6401 26.643 21.7601 26.0693C21.3201 25.7506 20.5029 25.4957 20 25.4957C19.4971 25.4957 18.6799 25.7506 18.2399 26.0693C17.3598 26.643 16.1655 30.9135 16.7312 31.4871C17.1713 31.9971 22.8287 31.9971 23.2688 31.4871Z" fill="#9FDB3D"/>
</svg>
